<svg xmlns="http://www.w3.org/2000/svg" width="26.952" height="26.107" viewBox="0 0 448.952 483.107">
  <g id="cart" transform="translate(-17.2 -1.731)">
    <path id="Path_1" data-name="Path 1" d="M145.152,318.09H411.345a54.917,54.917,0,0,0,54.807-54.807V150.093a1.259,1.259,0,0,0-.1-.6c0-.2-.1-.5-.1-.7s-.1-.4-.1-.6a6.327,6.327,0,0,1-.2-.7c-.1-.2-.1-.4-.2-.6s-.1-.4-.2-.6a4.84,4.84,0,0,1-.3-.7,2.17,2.17,0,0,0-.3-.5l-.3-.6c-.1-.2-.2-.3-.3-.5s-.3-.4-.4-.6a1.743,1.743,0,0,0-.4-.5c-.1-.2-.3-.3-.4-.5s-.3-.3-.4-.5-.3-.3-.4-.4l-.5-.5c-.2-.1-.3-.3-.5-.4s-.4-.3-.6-.4-.3-.2-.5-.3a2.077,2.077,0,0,1-.6-.4l-.6-.3-.6-.3-.6-.3c-.2-.1-.4-.1-.6-.2a1.841,1.841,0,0,0-.7-.2,4.3,4.3,0,0,1-.5-.1,2.186,2.186,0,0,0-.794-.1c-.1,0-.2-.1-.4-.1L117.252,91.414V44.351a6.106,6.106,0,0,0-.1-1.39.751.751,0,0,0-.1-.4c0-.3-.1-.6-.1-.894-.1-.3-.1-.5-.2-.794,0-.2-.1-.3-.1-.5l-.3-.894c0-.1-.1-.3-.1-.4a2.973,2.973,0,0,0-.4-.794c-.1-.1-.1-.3-.2-.4a2.077,2.077,0,0,0-.4-.6c-.1-.2-.2-.3-.3-.5s-.2-.3-.3-.5-.3-.4-.4-.6l-.3-.3-.6-.6-.3-.3a4.318,4.318,0,0,0-.7-.6c-.1-.1-.3-.2-.4-.3-.2-.2-.4-.3-.6-.5a9.155,9.155,0,0,0-.794-.5c-.1-.1-.2-.1-.3-.2-.4-.2-.894-.4-1.291-.6L35.835,1.061A13.416,13.416,0,1,0,25.41,25.784l64.935,27.4v293.7A54.87,54.87,0,0,0,138.1,401.194a54.092,54.092,0,1,0,100.48,27.8,53.088,53.088,0,0,0-7.447-27.3H351.672a53.354,53.354,0,0,0-7.447,27.3,54.112,54.112,0,1,0,54.112-54.112H145.152a28.03,28.03,0,0,1-28-28v-36.34A55.431,55.431,0,0,0,145.152,318.09ZM211.874,428.9a27.3,27.3,0,1,1-27.3-27.3A27.353,27.353,0,0,1,211.874,428.9Zm213.868,0a27.3,27.3,0,1,1-27.3-27.3A27.353,27.353,0,0,1,425.742,428.9Zm-14.4-137.614H145.152a28.03,28.03,0,0,1-28-28V118.42L439.344,162.8V263.183A28.052,28.052,0,0,1,411.345,291.282Z" transform="translate(0 1.731)"/>
  </g>
</svg>
